<?xml version="1.0" encoding="utf-8"?>
<!-- Svg Vector Icons : http://www.onlinewebfonts.com/icon -->
<!DOCTYPE svg PUBLIC "-//W3C//DTD SVG 1.1//EN" "http://www.w3.org/Graphics/SVG/1.1/DTD/svg11.dtd">
<svg version="1.1" xmlns="http://www.w3.org/2000/svg" xmlns:xlink="http://www.w3.org/1999/xlink" x="0px" y="0px" viewBox="0 0 1000 1000" enable-background="new 0 0 1000 1000" xml:space="preserve">
<metadata> Svg Vector Icons : http://www.onlinewebfonts.com/icon </metadata>
<g><path d="M959.4,10H836.9c-7.4,0-14.6,2.7-20.2,7.6L393.9,388.2c-21.9-4.6-55.7-10.7-77.7-10.7C147.4,377.5,10,514.9,10,683.8S147.4,990,316.3,990s306.3-137.4,306.3-306.3c0-50.2-9.6-83.8-20.4-111.7l104.2-35.4c12.7-4.3,21.1-16.4,20.8-29.7l-2.6-116.3l117-8.1c15.7-1.1,28-13.9,28.5-29.6l4.3-139.6L966,193c14-3.1,24-15.6,24-29.9V40.6C990,23.7,976.3,10,959.4,10z M224.4,683.8c36.8,0,68.5,21.6,83.2,52.8c5.6,11.9,8.7,25.1,8.7,39.1c0,50.7-41.2,91.9-91.9,91.9s-91.9-41.2-91.9-91.9S173.7,683.8,224.4,683.8z"/></g>
</svg>